<svg width="315" height="435" viewBox="0 0 315 435" fill="none" xmlns="http://www.w3.org/2000/svg">
<rect width="314.1" height="435" fill="#A259FF"/>
<path d="M32.9816 30.8989H29.3585V28.6138H32.9816C33.5415 28.6138 33.9972 28.5226 34.3488 28.3403C34.7003 28.1515 34.9575 27.8911 35.1202 27.5591C35.283 27.2271 35.3644 26.8527 35.3644 26.436C35.3644 26.0129 35.283 25.619 35.1202 25.2544C34.9575 24.8898 34.7003 24.5968 34.3488 24.3755C33.9972 24.1541 33.5415 24.0435 32.9816 24.0435H30.3741V35.9673H27.4445V21.7485H32.9816C34.0948 21.7485 35.0486 21.9504 35.8429 22.354C36.6437 22.7511 37.2557 23.3013 37.6788 24.0044C38.102 24.7075 38.3136 25.5116 38.3136 26.4165C38.3136 27.3345 38.102 28.1287 37.6788 28.7993C37.2557 29.4699 36.6437 29.9875 35.8429 30.3521C35.0486 30.7166 34.0948 30.8989 32.9816 30.8989ZM42.9718 27.7056V35.9673H40.1593V25.4009H42.8058L42.9718 27.7056ZM46.1554 25.3325L46.1066 27.9399C45.9698 27.9204 45.8038 27.9041 45.6085 27.8911C45.4197 27.8716 45.2472 27.8618 45.0909 27.8618C44.6938 27.8618 44.3488 27.9139 44.0558 28.0181C43.7693 28.1157 43.5284 28.2622 43.3331 28.4575C43.1443 28.6528 43.0011 28.8905 42.9034 29.1704C42.8123 29.4504 42.7602 29.7694 42.7472 30.1274L42.1808 29.9517C42.1808 29.2681 42.2491 28.6398 42.3859 28.0669C42.5226 27.4875 42.7212 26.9829 42.9816 26.5532C43.2485 26.1235 43.574 25.7915 43.9581 25.5571C44.3422 25.3228 44.7817 25.2056 45.2765 25.2056C45.4327 25.2056 45.5922 25.2186 45.755 25.2446C45.9178 25.2642 46.0512 25.2935 46.1554 25.3325ZM46.7413 30.7915V30.5864C46.7413 29.8117 46.852 29.0988 47.0734 28.4478C47.2947 27.7902 47.617 27.2205 48.0402 26.7388C48.4633 26.257 48.9842 25.8826 49.6027 25.6157C50.2212 25.3423 50.9308 25.2056 51.7316 25.2056C52.5323 25.2056 53.2452 25.3423 53.8702 25.6157C54.4952 25.8826 55.0193 26.257 55.4425 26.7388C55.8722 27.2205 56.1977 27.7902 56.4191 28.4478C56.6404 29.0988 56.7511 29.8117 56.7511 30.5864V30.7915C56.7511 31.5597 56.6404 32.2726 56.4191 32.9302C56.1977 33.5812 55.8722 34.1509 55.4425 34.6392C55.0193 35.1209 54.4985 35.4953 53.88 35.7622C53.2615 36.0291 52.5519 36.1626 51.7511 36.1626C50.9503 36.1626 50.2374 36.0291 49.6124 35.7622C48.9939 35.4953 48.4698 35.1209 48.0402 34.6392C47.617 34.1509 47.2947 33.5812 47.0734 32.9302C46.852 32.2726 46.7413 31.5597 46.7413 30.7915ZM49.5538 30.5864V30.7915C49.5538 31.2342 49.5929 31.6476 49.671 32.0317C49.7491 32.4159 49.8728 32.7544 50.0421 33.0474C50.2179 33.3338 50.4458 33.5584 50.7257 33.7212C51.0057 33.884 51.3475 33.9653 51.7511 33.9653C52.1417 33.9653 52.477 33.884 52.757 33.7212C53.0369 33.5584 53.2615 33.3338 53.4308 33.0474C53.6001 32.7544 53.7238 32.4159 53.8019 32.0317C53.8865 31.6476 53.9288 31.2342 53.9288 30.7915V30.5864C53.9288 30.1567 53.8865 29.7531 53.8019 29.3755C53.7238 28.9914 53.5968 28.6528 53.421 28.3599C53.2517 28.0604 53.0271 27.826 52.7472 27.6567C52.4672 27.4875 52.1287 27.4028 51.7316 27.4028C51.3344 27.4028 50.9959 27.4875 50.7159 27.6567C50.4425 27.826 50.2179 28.0604 50.0421 28.3599C49.8728 28.6528 49.7491 28.9914 49.671 29.3755C49.5929 29.7531 49.5538 30.1567 49.5538 30.5864ZM58.6359 25.4009H61.4581V36.6021C61.4581 37.3833 61.3149 38.0441 61.0284 38.5845C60.742 39.1248 60.3286 39.535 59.7882 39.8149C59.2478 40.0949 58.5935 40.2349 57.8253 40.2349C57.5844 40.2349 57.3501 40.2218 57.1222 40.1958C56.8878 40.1698 56.6469 40.1274 56.3995 40.0688L56.4093 37.9106C56.5656 37.9367 56.7185 37.9562 56.8683 37.9692C57.0115 37.9888 57.158 37.9985 57.3077 37.9985C57.6007 37.9985 57.8448 37.9497 58.0402 37.8521C58.2355 37.7544 58.382 37.6014 58.4796 37.3931C58.5838 37.1912 58.6359 36.9276 58.6359 36.6021V25.4009ZM58.4113 22.647C58.4113 22.2368 58.5545 21.8983 58.8409 21.6313C59.1339 21.3644 59.518 21.231 59.9933 21.231C60.4751 21.231 60.8592 21.3644 61.1456 21.6313C61.4321 21.8983 61.5753 22.2368 61.5753 22.647C61.5753 23.0571 61.4321 23.3957 61.1456 23.6626C60.8592 23.9295 60.4751 24.063 59.9933 24.063C59.518 24.063 59.1339 23.9295 58.8409 23.6626C58.5545 23.3957 58.4113 23.0571 58.4113 22.647ZM68.5577 36.1626C67.7374 36.1626 67.0017 36.0324 66.3507 35.772C65.6997 35.505 65.1463 35.1372 64.6906 34.6685C64.2413 34.1997 63.8963 33.6561 63.6554 33.0376C63.4145 32.4126 63.2941 31.7485 63.2941 31.0454V30.6548C63.2941 29.854 63.408 29.1216 63.6359 28.4575C63.8637 27.7935 64.1892 27.2173 64.6124 26.729C65.0421 26.2407 65.5629 25.8664 66.1749 25.606C66.7869 25.339 67.477 25.2056 68.2452 25.2056C68.9939 25.2056 69.658 25.3293 70.2374 25.5767C70.8169 25.8241 71.3019 26.1756 71.6925 26.6313C72.0896 27.0871 72.3891 27.634 72.5909 28.272C72.7928 28.9035 72.8937 29.6066 72.8937 30.3813V31.5532H64.4952V29.6782H70.13V29.4634C70.13 29.0728 70.0584 28.7244 69.9152 28.4185C69.7784 28.106 69.5701 27.8586 69.2902 27.6763C69.0102 27.494 68.6521 27.4028 68.2159 27.4028C67.8448 27.4028 67.5258 27.4842 67.2589 27.647C66.992 27.8097 66.7739 28.0376 66.6046 28.3306C66.4419 28.6235 66.3182 28.9686 66.2335 29.3657C66.1554 29.7563 66.1163 30.186 66.1163 30.6548V31.0454C66.1163 31.4686 66.1749 31.8592 66.2921 32.2173C66.4158 32.5754 66.5883 32.8846 66.8097 33.145C67.0376 33.4054 67.311 33.6073 67.63 33.7505C67.9555 33.8937 68.3234 33.9653 68.7335 33.9653C69.2413 33.9653 69.7133 33.8677 70.1495 33.6724C70.5922 33.4705 70.9731 33.1678 71.2921 32.7642L72.6593 34.2485C72.4379 34.5675 72.1352 34.8735 71.7511 35.1665C71.3735 35.4595 70.9178 35.7004 70.3839 35.8892C69.8501 36.0715 69.2413 36.1626 68.5577 36.1626ZM78.8605 33.9653C79.2055 33.9653 79.5115 33.9002 79.7784 33.77C80.0454 33.6333 80.2537 33.4445 80.4034 33.2036C80.5597 32.9562 80.6411 32.6665 80.6476 32.3345H83.2941C83.2876 33.0767 83.089 33.7375 82.6984 34.3169C82.3077 34.8898 81.7837 35.3423 81.1261 35.6743C80.4685 35.9998 79.7329 36.1626 78.9191 36.1626C78.0988 36.1626 77.3826 36.0259 76.7706 35.7524C76.1652 35.479 75.6606 35.1014 75.257 34.6196C74.8533 34.1313 74.5506 33.5649 74.3488 32.9204C74.1469 32.2694 74.046 31.5728 74.046 30.8306V30.5474C74.046 29.7987 74.1469 29.1021 74.3488 28.4575C74.5506 27.8065 74.8533 27.2401 75.257 26.7583C75.6606 26.27 76.1652 25.8892 76.7706 25.6157C77.3761 25.3423 78.0857 25.2056 78.8995 25.2056C79.7654 25.2056 80.5239 25.3716 81.1749 25.7036C81.8325 26.0356 82.3468 26.5109 82.7179 27.1294C83.0955 27.7414 83.2876 28.4673 83.2941 29.3071H80.6476C80.6411 28.9556 80.5662 28.6366 80.423 28.3501C80.2863 28.0636 80.0844 27.8358 79.8175 27.6665C79.5571 27.4907 79.2348 27.4028 78.8507 27.4028C78.4406 27.4028 78.1053 27.4907 77.8448 27.6665C77.5844 27.8358 77.3826 28.0701 77.2394 28.3696C77.0962 28.6626 76.9952 28.9979 76.9366 29.3755C76.8846 29.7466 76.8585 30.1372 76.8585 30.5474V30.8306C76.8585 31.2407 76.8846 31.6346 76.9366 32.0122C76.9887 32.3898 77.0864 32.7251 77.2296 33.0181C77.3794 33.311 77.5844 33.5422 77.8448 33.7114C78.1053 33.8807 78.4438 33.9653 78.8605 33.9653ZM90.1007 25.4009V27.3931H83.9484V25.4009H90.1007ZM85.4718 22.7935H88.2843V32.7837C88.2843 33.0897 88.3234 33.3241 88.4015 33.4868C88.4861 33.6496 88.6098 33.7635 88.7726 33.8286C88.9353 33.8872 89.1404 33.9165 89.3878 33.9165C89.5636 33.9165 89.7198 33.91 89.8566 33.897C89.9998 33.8774 90.1202 33.8579 90.2179 33.8384L90.2277 35.9087C89.9868 35.9868 89.7264 36.0487 89.4464 36.0942C89.1665 36.1398 88.8572 36.1626 88.5187 36.1626C87.9002 36.1626 87.3598 36.0617 86.8976 35.8599C86.4419 35.6515 86.0903 35.3195 85.8429 34.8638C85.5955 34.408 85.4718 33.8091 85.4718 33.0669V22.7935ZM102.689 21.7485V35.9673H99.7687V21.7485H102.689ZM107.064 21.7485V24.0435H95.462V21.7485H107.064ZM111.526 25.4009V35.9673H108.704V25.4009H111.526ZM108.528 22.647C108.528 22.2368 108.672 21.8983 108.958 21.6313C109.245 21.3644 109.629 21.231 110.11 21.231C110.586 21.231 110.967 21.3644 111.253 21.6313C111.546 21.8983 111.693 22.2368 111.693 22.647C111.693 23.0571 111.546 23.3957 111.253 23.6626C110.967 23.9295 110.586 24.063 110.11 24.063C109.629 24.063 109.245 23.9295 108.958 23.6626C108.672 23.3957 108.528 23.0571 108.528 22.647ZM119.026 25.4009V27.3931H112.874V25.4009H119.026ZM114.398 22.7935H117.21V32.7837C117.21 33.0897 117.249 33.3241 117.327 33.4868C117.412 33.6496 117.536 33.7635 117.698 33.8286C117.861 33.8872 118.066 33.9165 118.314 33.9165C118.489 33.9165 118.646 33.91 118.782 33.897C118.926 33.8774 119.046 33.8579 119.144 33.8384L119.153 35.9087C118.913 35.9868 118.652 36.0487 118.372 36.0942C118.092 36.1398 117.783 36.1626 117.444 36.1626C116.826 36.1626 116.286 36.0617 115.823 35.8599C115.368 35.6515 115.016 35.3195 114.769 34.8638C114.521 34.408 114.398 33.8091 114.398 33.0669V22.7935ZM123.597 20.9673V35.9673H120.775V20.9673H123.597ZM130.784 36.1626C129.964 36.1626 129.228 36.0324 128.577 35.772C127.926 35.505 127.373 35.1372 126.917 34.6685C126.468 34.1997 126.123 33.6561 125.882 33.0376C125.641 32.4126 125.521 31.7485 125.521 31.0454V30.6548C125.521 29.854 125.635 29.1216 125.862 28.4575C126.09 27.7935 126.416 27.2173 126.839 26.729C127.269 26.2407 127.79 25.8664 128.401 25.606C129.013 25.339 129.704 25.2056 130.472 25.2056C131.22 25.2056 131.885 25.3293 132.464 25.5767C133.043 25.8241 133.528 26.1756 133.919 26.6313C134.316 27.0871 134.616 27.634 134.818 28.272C135.019 28.9035 135.12 29.6066 135.12 30.3813V31.5532H126.722V29.6782H132.357V29.4634C132.357 29.0728 132.285 28.7244 132.142 28.4185C132.005 28.106 131.797 27.8586 131.517 27.6763C131.237 27.494 130.879 27.4028 130.443 27.4028C130.071 27.4028 129.752 27.4842 129.485 27.647C129.219 27.8097 129 28.0376 128.831 28.3306C128.668 28.6235 128.545 28.9686 128.46 29.3657C128.382 29.7563 128.343 30.186 128.343 30.6548V31.0454C128.343 31.4686 128.401 31.8592 128.519 32.2173C128.642 32.5754 128.815 32.8846 129.036 33.145C129.264 33.4054 129.538 33.6073 129.857 33.7505C130.182 33.8937 130.55 33.9653 130.96 33.9653C131.468 33.9653 131.94 33.8677 132.376 33.6724C132.819 33.4705 133.2 33.1678 133.519 32.7642L134.886 34.2485C134.665 34.5675 134.362 34.8735 133.978 35.1665C133.6 35.4595 133.144 35.7004 132.61 35.8892C132.077 36.0715 131.468 36.1626 130.784 36.1626ZM147.249 28.7603V30.9673H141.732V28.7603H147.249ZM164.232 27.5396V29.8247H156.81V27.5396H164.232ZM157.679 21.7485V35.9673H154.749V21.7485H157.679ZM166.321 21.7485V35.9673H163.401V21.7485H166.321ZM173.558 36.1626C172.737 36.1626 172.002 36.0324 171.351 35.772C170.7 35.505 170.146 35.1372 169.691 34.6685C169.241 34.1997 168.896 33.6561 168.655 33.0376C168.415 32.4126 168.294 31.7485 168.294 31.0454V30.6548C168.294 29.854 168.408 29.1216 168.636 28.4575C168.864 27.7935 169.189 27.2173 169.612 26.729C170.042 26.2407 170.563 25.8664 171.175 25.606C171.787 25.339 172.477 25.2056 173.245 25.2056C173.994 25.2056 174.658 25.3293 175.237 25.5767C175.817 25.8241 176.302 26.1756 176.693 26.6313C177.09 27.0871 177.389 27.634 177.591 28.272C177.793 28.9035 177.894 29.6066 177.894 30.3813V31.5532H169.495V29.6782H175.13V29.4634C175.13 29.0728 175.058 28.7244 174.915 28.4185C174.778 28.106 174.57 27.8586 174.29 27.6763C174.01 27.494 173.652 27.4028 173.216 27.4028C172.845 27.4028 172.526 27.4842 172.259 27.647C171.992 27.8097 171.774 28.0376 171.605 28.3306C171.442 28.6235 171.318 28.9686 171.234 29.3657C171.155 29.7563 171.116 30.186 171.116 30.6548V31.0454C171.116 31.4686 171.175 31.8592 171.292 32.2173C171.416 32.5754 171.588 32.8846 171.81 33.145C172.038 33.4054 172.311 33.6073 172.63 33.7505C172.956 33.8937 173.323 33.9653 173.734 33.9653C174.241 33.9653 174.713 33.8677 175.15 33.6724C175.592 33.4705 175.973 33.1678 176.292 32.7642L177.659 34.2485C177.438 34.5675 177.135 34.8735 176.751 35.1665C176.373 35.4595 175.918 35.7004 175.384 35.8892C174.85 36.0715 174.241 36.1626 173.558 36.1626ZM182.308 27.7056V35.9673H179.495V25.4009H182.142L182.308 27.7056ZM185.491 25.3325L185.443 27.9399C185.306 27.9204 185.14 27.9041 184.944 27.8911C184.756 27.8716 184.583 27.8618 184.427 27.8618C184.03 27.8618 183.685 27.9139 183.392 28.0181C183.105 28.1157 182.864 28.2622 182.669 28.4575C182.48 28.6528 182.337 28.8905 182.239 29.1704C182.148 29.4504 182.096 29.7694 182.083 30.1274L181.517 29.9517C181.517 29.2681 181.585 28.6398 181.722 28.0669C181.859 27.4875 182.057 26.9829 182.318 26.5532C182.584 26.1235 182.91 25.7915 183.294 25.5571C183.678 25.3228 184.118 25.2056 184.612 25.2056C184.769 25.2056 184.928 25.2186 185.091 25.2446C185.254 25.2642 185.387 25.2935 185.491 25.3325ZM191.487 36.1626C190.667 36.1626 189.931 36.0324 189.28 35.772C188.629 35.505 188.076 35.1372 187.62 34.6685C187.171 34.1997 186.826 33.6561 186.585 33.0376C186.344 32.4126 186.224 31.7485 186.224 31.0454V30.6548C186.224 29.854 186.338 29.1216 186.566 28.4575C186.793 27.7935 187.119 27.2173 187.542 26.729C187.972 26.2407 188.493 25.8664 189.105 25.606C189.717 25.339 190.407 25.2056 191.175 25.2056C191.924 25.2056 192.588 25.3293 193.167 25.5767C193.747 25.8241 194.232 26.1756 194.622 26.6313C195.019 27.0871 195.319 27.634 195.521 28.272C195.722 28.9035 195.823 29.6066 195.823 30.3813V31.5532H187.425V29.6782H193.06V29.4634C193.06 29.0728 192.988 28.7244 192.845 28.4185C192.708 28.106 192.5 27.8586 192.22 27.6763C191.94 27.494 191.582 27.4028 191.146 27.4028C190.775 27.4028 190.456 27.4842 190.189 27.647C189.922 27.8097 189.704 28.0376 189.534 28.3306C189.372 28.6235 189.248 28.9686 189.163 29.3657C189.085 29.7563 189.046 30.186 189.046 30.6548V31.0454C189.046 31.4686 189.105 31.8592 189.222 32.2173C189.345 32.5754 189.518 32.8846 189.739 33.145C189.967 33.4054 190.241 33.6073 190.56 33.7505C190.885 33.8937 191.253 33.9653 191.663 33.9653C192.171 33.9653 192.643 33.8677 193.079 33.6724C193.522 33.4705 193.903 33.1678 194.222 32.7642L195.589 34.2485C195.368 34.5675 195.065 34.8735 194.681 35.1665C194.303 35.4595 193.847 35.7004 193.314 35.8892C192.78 36.0715 192.171 36.1626 191.487 36.1626ZM206.771 33.9653C207.116 33.9653 207.422 33.9002 207.689 33.77C207.956 33.6333 208.164 33.4445 208.314 33.2036C208.47 32.9562 208.551 32.6665 208.558 32.3345H211.204C211.198 33.0767 210.999 33.7375 210.609 34.3169C210.218 34.8898 209.694 35.3423 209.036 35.6743C208.379 35.9998 207.643 36.1626 206.829 36.1626C206.009 36.1626 205.293 36.0259 204.681 35.7524C204.075 35.479 203.571 35.1014 203.167 34.6196C202.763 34.1313 202.461 33.5649 202.259 32.9204C202.057 32.2694 201.956 31.5728 201.956 30.8306V30.5474C201.956 29.7987 202.057 29.1021 202.259 28.4575C202.461 27.8065 202.763 27.2401 203.167 26.7583C203.571 26.27 204.075 25.8892 204.681 25.6157C205.286 25.3423 205.996 25.2056 206.81 25.2056C207.676 25.2056 208.434 25.3716 209.085 25.7036C209.743 26.0356 210.257 26.5109 210.628 27.1294C211.006 27.7414 211.198 28.4673 211.204 29.3071H208.558C208.551 28.9556 208.476 28.6366 208.333 28.3501C208.196 28.0636 207.995 27.8358 207.728 27.6665C207.467 27.4907 207.145 27.4028 206.761 27.4028C206.351 27.4028 206.015 27.4907 205.755 27.6665C205.495 27.8358 205.293 28.0701 205.15 28.3696C205.006 28.6626 204.905 28.9979 204.847 29.3755C204.795 29.7466 204.769 30.1372 204.769 30.5474V30.8306C204.769 31.2407 204.795 31.6346 204.847 32.0122C204.899 32.3898 204.997 32.7251 205.14 33.0181C205.29 33.311 205.495 33.5422 205.755 33.7114C206.015 33.8807 206.354 33.9653 206.771 33.9653ZM212.386 30.7915V30.5864C212.386 29.8117 212.497 29.0988 212.718 28.4478C212.939 27.7902 213.262 27.2205 213.685 26.7388C214.108 26.257 214.629 25.8826 215.247 25.6157C215.866 25.3423 216.575 25.2056 217.376 25.2056C218.177 25.2056 218.89 25.3423 219.515 25.6157C220.14 25.8826 220.664 26.257 221.087 26.7388C221.517 27.2205 221.842 27.7902 222.064 28.4478C222.285 29.0988 222.396 29.8117 222.396 30.5864V30.7915C222.396 31.5597 222.285 32.2726 222.064 32.9302C221.842 33.5812 221.517 34.1509 221.087 34.6392C220.664 35.1209 220.143 35.4953 219.525 35.7622C218.906 36.0291 218.196 36.1626 217.396 36.1626C216.595 36.1626 215.882 36.0291 215.257 35.7622C214.638 35.4953 214.114 35.1209 213.685 34.6392C213.262 34.1509 212.939 33.5812 212.718 32.9302C212.497 32.2726 212.386 31.5597 212.386 30.7915ZM215.198 30.5864V30.7915C215.198 31.2342 215.237 31.6476 215.316 32.0317C215.394 32.4159 215.517 32.7544 215.687 33.0474C215.862 33.3338 216.09 33.5584 216.37 33.7212C216.65 33.884 216.992 33.9653 217.396 33.9653C217.786 33.9653 218.122 33.884 218.401 33.7212C218.681 33.5584 218.906 33.3338 219.075 33.0474C219.245 32.7544 219.368 32.4159 219.446 32.0317C219.531 31.6476 219.573 31.2342 219.573 30.7915V30.5864C219.573 30.1567 219.531 29.7531 219.446 29.3755C219.368 28.9914 219.241 28.6528 219.066 28.3599C218.896 28.0604 218.672 27.826 218.392 27.6567C218.112 27.4875 217.773 27.4028 217.376 27.4028C216.979 27.4028 216.64 27.4875 216.36 27.6567C216.087 27.826 215.862 28.0604 215.687 28.3599C215.517 28.6528 215.394 28.9914 215.316 29.3755C215.237 29.7531 215.198 30.1567 215.198 30.5864ZM226.937 27.5884V35.9673H224.114V25.4009H226.761L226.937 27.5884ZM226.546 30.313H225.765C225.765 29.5773 225.853 28.9002 226.028 28.2817C226.211 27.6567 226.474 27.1164 226.819 26.6606C227.171 26.1984 227.604 25.8403 228.118 25.5864C228.633 25.3325 229.228 25.2056 229.905 25.2056C230.374 25.2056 230.804 25.2772 231.194 25.4204C231.585 25.5571 231.92 25.7752 232.2 26.0747C232.487 26.3677 232.708 26.7518 232.864 27.2271C233.021 27.6958 233.099 28.259 233.099 28.9165V35.9673H230.286V29.229C230.286 28.7472 230.221 28.3761 230.091 28.1157C229.961 27.8553 229.775 27.673 229.534 27.5688C229.3 27.4647 229.017 27.4126 228.685 27.4126C228.32 27.4126 228.001 27.4875 227.728 27.6372C227.461 27.7869 227.239 27.9953 227.064 28.2622C226.888 28.5226 226.758 28.8286 226.673 29.1802C226.588 29.5317 226.546 29.9093 226.546 30.313ZM232.835 29.9907L231.829 30.1177C231.829 29.4276 231.914 28.7863 232.083 28.1938C232.259 27.6014 232.516 27.0806 232.855 26.6313C233.2 26.1821 233.626 25.8338 234.134 25.5864C234.642 25.3325 235.228 25.2056 235.892 25.2056C236.4 25.2056 236.862 25.2804 237.278 25.4302C237.695 25.5734 238.05 25.8045 238.343 26.1235C238.642 26.436 238.87 26.8462 239.026 27.354C239.189 27.8618 239.271 28.4836 239.271 29.2192V35.9673H236.448V29.2192C236.448 28.731 236.383 28.3599 236.253 28.106C236.129 27.8455 235.947 27.6665 235.706 27.5688C235.472 27.4647 235.192 27.4126 234.866 27.4126C234.528 27.4126 234.232 27.481 233.978 27.6177C233.724 27.7479 233.512 27.9302 233.343 28.1646C233.174 28.3989 233.047 28.6724 232.962 28.9849C232.877 29.2909 232.835 29.6261 232.835 29.9907ZM246.312 36.1626C245.491 36.1626 244.756 36.0324 244.105 35.772C243.454 35.505 242.9 35.1372 242.444 34.6685C241.995 34.1997 241.65 33.6561 241.409 33.0376C241.168 32.4126 241.048 31.7485 241.048 31.0454V30.6548C241.048 29.854 241.162 29.1216 241.39 28.4575C241.618 27.7935 241.943 27.2173 242.366 26.729C242.796 26.2407 243.317 25.8664 243.929 25.606C244.541 25.339 245.231 25.2056 245.999 25.2056C246.748 25.2056 247.412 25.3293 247.991 25.5767C248.571 25.8241 249.056 26.1756 249.446 26.6313C249.844 27.0871 250.143 27.634 250.345 28.272C250.547 28.9035 250.648 29.6066 250.648 30.3813V31.5532H242.249V29.6782H247.884V29.4634C247.884 29.0728 247.812 28.7244 247.669 28.4185C247.532 28.106 247.324 27.8586 247.044 27.6763C246.764 27.494 246.406 27.4028 245.97 27.4028C245.599 27.4028 245.28 27.4842 245.013 27.647C244.746 27.8097 244.528 28.0376 244.359 28.3306C244.196 28.6235 244.072 28.9686 243.987 29.3657C243.909 29.7563 243.87 30.186 243.87 30.6548V31.0454C243.87 31.4686 243.929 31.8592 244.046 32.2173C244.17 32.5754 244.342 32.8846 244.564 33.145C244.791 33.4054 245.065 33.6073 245.384 33.7505C245.709 33.8937 246.077 33.9653 246.487 33.9653C246.995 33.9653 247.467 33.8677 247.903 33.6724C248.346 33.4705 248.727 33.1678 249.046 32.7642L250.413 34.2485C250.192 34.5675 249.889 34.8735 249.505 35.1665C249.127 35.4595 248.672 35.7004 248.138 35.8892C247.604 36.0715 246.995 36.1626 246.312 36.1626ZM257.962 33.0474C257.962 32.8455 257.903 32.6632 257.786 32.5005C257.669 32.3377 257.451 32.188 257.132 32.0513C256.819 31.908 256.367 31.7778 255.775 31.6606C255.241 31.5435 254.743 31.397 254.28 31.2212C253.825 31.0389 253.428 30.8208 253.089 30.5669C252.757 30.313 252.497 30.0135 252.308 29.6685C252.119 29.3169 252.025 28.9165 252.025 28.4673C252.025 28.0246 252.119 27.6079 252.308 27.2173C252.503 26.8267 252.78 26.4816 253.138 26.1821C253.502 25.8761 253.945 25.6385 254.466 25.4692C254.993 25.2935 255.586 25.2056 256.243 25.2056C257.161 25.2056 257.949 25.3521 258.607 25.645C259.271 25.938 259.778 26.3416 260.13 26.856C260.488 27.3638 260.667 27.9432 260.667 28.5942H257.855C257.855 28.3208 257.796 28.0767 257.679 27.8618C257.568 27.6405 257.392 27.4679 257.151 27.3442C256.917 27.214 256.611 27.1489 256.234 27.1489C255.921 27.1489 255.651 27.2043 255.423 27.3149C255.195 27.4191 255.019 27.5623 254.896 27.7446C254.778 27.9204 254.72 28.1157 254.72 28.3306C254.72 28.4933 254.752 28.6398 254.818 28.77C254.889 28.8937 255.003 29.0076 255.159 29.1118C255.316 29.216 255.517 29.3136 255.765 29.4048C256.019 29.4894 256.331 29.5675 256.702 29.6392C257.464 29.7954 258.144 30.0005 258.743 30.2544C259.342 30.5018 259.818 30.8403 260.169 31.27C260.521 31.6932 260.696 32.2498 260.696 32.9399C260.696 33.4087 260.592 33.8384 260.384 34.229C260.176 34.6196 259.876 34.9614 259.485 35.2544C259.095 35.5409 258.626 35.7655 258.079 35.9282C257.539 36.0845 256.93 36.1626 256.253 36.1626C255.27 36.1626 254.437 35.9868 253.753 35.6353C253.076 35.2837 252.562 34.8377 252.21 34.2974C251.865 33.7505 251.693 33.1906 251.693 32.6177H254.359C254.372 33.0018 254.469 33.311 254.651 33.5454C254.84 33.7798 255.078 33.9491 255.364 34.0532C255.657 34.1574 255.973 34.2095 256.312 34.2095C256.676 34.2095 256.979 34.1606 257.22 34.063C257.461 33.9588 257.643 33.8221 257.767 33.6528C257.897 33.4771 257.962 33.2752 257.962 33.0474ZM32.4445 48.4009V50.3931H26.2921V48.4009H32.4445ZM27.8156 45.7935H30.6281V55.7837C30.6281 56.0897 30.6671 56.3241 30.7452 56.4868C30.8299 56.6496 30.9536 56.7635 31.1163 56.8286C31.2791 56.8872 31.4842 56.9165 31.7316 56.9165C31.9073 56.9165 32.0636 56.91 32.2003 56.897C32.3435 56.8774 32.464 56.8579 32.5616 56.8384L32.5714 58.9087C32.3305 58.9868 32.0701 59.0487 31.7902 59.0942C31.5102 59.1398 31.201 59.1626 30.8624 59.1626C30.2439 59.1626 29.7036 59.0617 29.2413 58.8599C28.7856 58.6515 28.434 58.3195 28.1866 57.8638C27.9392 57.408 27.8156 56.8091 27.8156 56.0669V45.7935ZM36.7902 43.9673V58.9673H33.9777V43.9673H36.7902ZM36.3898 53.313H35.6183C35.6248 52.5773 35.7225 51.9002 35.9113 51.2817C36.1001 50.6567 36.3702 50.1164 36.7218 49.6606C37.0734 49.1984 37.4933 48.8403 37.9816 48.5864C38.4764 48.3325 39.0232 48.2056 39.6222 48.2056C40.143 48.2056 40.615 48.2804 41.0382 48.4302C41.4679 48.5734 41.8357 48.8078 42.1417 49.1333C42.4542 49.4523 42.6951 49.8722 42.8644 50.3931C43.0337 50.9139 43.1183 51.5454 43.1183 52.2876V58.9673H40.2863V52.2681C40.2863 51.7993 40.2179 51.4315 40.0812 51.1646C39.951 50.8911 39.7589 50.6991 39.505 50.5884C39.2576 50.4712 38.9516 50.4126 38.587 50.4126C38.1834 50.4126 37.8383 50.4875 37.5519 50.6372C37.2719 50.7869 37.0473 50.9953 36.8781 51.2622C36.7088 51.5226 36.5851 51.8286 36.507 52.1802C36.4288 52.5317 36.3898 52.9093 36.3898 53.313ZM50.1202 59.1626C49.2999 59.1626 48.5642 59.0324 47.9132 58.772C47.2622 58.505 46.7088 58.1372 46.2531 57.6685C45.8038 57.1997 45.4588 56.6561 45.2179 56.0376C44.977 55.4126 44.8566 54.7485 44.8566 54.0454V53.6548C44.8566 52.854 44.9705 52.1216 45.1984 51.4575C45.4262 50.7935 45.7517 50.2173 46.1749 49.729C46.6046 49.2407 47.1254 48.8664 47.7374 48.606C48.3494 48.339 49.0395 48.2056 49.8077 48.2056C50.5564 48.2056 51.2205 48.3293 51.7999 48.5767C52.3794 48.8241 52.8644 49.1756 53.255 49.6313C53.6521 50.0871 53.9516 50.634 54.1534 51.272C54.3553 51.9035 54.4562 52.6066 54.4562 53.3813V54.5532H46.0577V52.6782H51.6925V52.4634C51.6925 52.0728 51.6209 51.7244 51.4777 51.4185C51.3409 51.106 51.1326 50.8586 50.8527 50.6763C50.5727 50.494 50.2146 50.4028 49.7784 50.4028C49.4073 50.4028 49.0883 50.4842 48.8214 50.647C48.5545 50.8097 48.3364 51.0376 48.1671 51.3306C48.0044 51.6235 47.8807 51.9686 47.796 52.3657C47.7179 52.7563 47.6788 53.186 47.6788 53.6548V54.0454C47.6788 54.4686 47.7374 54.8592 47.8546 55.2173C47.9783 55.5754 48.1508 55.8846 48.3722 56.145C48.6001 56.4054 48.8735 56.6073 49.1925 56.7505C49.518 56.8937 49.8859 56.9653 50.296 56.9653C50.8038 56.9653 51.2758 56.8677 51.712 56.6724C52.1547 56.4705 52.5356 56.1678 52.8546 55.7642L54.2218 57.2485C54.0004 57.5675 53.6977 57.8735 53.3136 58.1665C52.936 58.4595 52.4803 58.7004 51.9464 58.8892C51.4126 59.0715 50.8038 59.1626 50.1202 59.1626ZM63.7921 50.6567V58.9673H60.9796V48.4009H63.6163L63.7921 50.6567ZM63.382 53.313H62.6202C62.6202 52.5317 62.7212 51.8286 62.923 51.2036C63.1248 50.5721 63.408 50.035 63.7726 49.5923C64.1372 49.1431 64.5701 48.8013 65.0714 48.5669C65.5792 48.326 66.1456 48.2056 66.7706 48.2056C67.2654 48.2056 67.7179 48.2772 68.1281 48.4204C68.5382 48.5636 68.8898 48.7915 69.1827 49.104C69.4822 49.4165 69.7101 49.8299 69.8663 50.3442C70.0291 50.8586 70.1105 51.4868 70.1105 52.229V58.9673H67.2784V52.2192C67.2784 51.7505 67.2133 51.3859 67.0831 51.1255C66.9529 50.8651 66.7609 50.6828 66.507 50.5786C66.2596 50.4679 65.9536 50.4126 65.589 50.4126C65.2114 50.4126 64.8826 50.4875 64.6027 50.6372C64.3292 50.7869 64.1014 50.9953 63.9191 51.2622C63.7433 51.5226 63.6098 51.8286 63.5187 52.1802C63.4275 52.5317 63.382 52.9093 63.382 53.313ZM77.9523 56.5845V51.8774C77.9523 51.5389 77.8969 51.2492 77.7863 51.0083C77.6756 50.7609 77.5031 50.5688 77.2687 50.4321C77.0408 50.2954 76.7446 50.2271 76.38 50.2271C76.0675 50.2271 75.7973 50.2824 75.5695 50.3931C75.3416 50.4972 75.1658 50.6502 75.0421 50.8521C74.9184 51.0474 74.8566 51.2785 74.8566 51.5454H72.0441C72.0441 51.0962 72.1482 50.6698 72.3566 50.2661C72.5649 49.8625 72.8676 49.5076 73.2648 49.2017C73.6619 48.8892 74.1339 48.645 74.6808 48.4692C75.2342 48.2935 75.8527 48.2056 76.5363 48.2056C77.3566 48.2056 78.0857 48.3423 78.7238 48.6157C79.3618 48.8892 79.8631 49.2993 80.2277 49.8462C80.5988 50.3931 80.7843 51.0767 80.7843 51.897V56.4185C80.7843 56.9979 80.8201 57.4731 80.8917 57.8442C80.9633 58.2088 81.0675 58.5278 81.2042 58.8013V58.9673H78.3624C78.2257 58.6808 78.1215 58.3228 78.0499 57.8931C77.9848 57.4569 77.9523 57.0207 77.9523 56.5845ZM78.3234 52.5317L78.3429 54.1235H76.7706C76.3995 54.1235 76.0773 54.1659 75.8038 54.2505C75.5304 54.3351 75.3058 54.4556 75.13 54.6118C74.9542 54.7616 74.824 54.9373 74.7394 55.1392C74.6613 55.341 74.6222 55.5623 74.6222 55.8032C74.6222 56.0441 74.6775 56.2622 74.7882 56.4575C74.8989 56.6463 75.0584 56.7961 75.2667 56.9067C75.4751 57.0109 75.7192 57.063 75.9991 57.063C76.4223 57.063 76.7902 56.9784 77.1027 56.8091C77.4152 56.6398 77.656 56.4315 77.8253 56.1841C78.0011 55.9367 78.0922 55.7023 78.0988 55.481L78.8409 56.6724C78.7368 56.9393 78.5935 57.216 78.4113 57.5024C78.2355 57.7889 78.0109 58.0591 77.7374 58.313C77.464 58.5604 77.1352 58.7655 76.7511 58.9282C76.367 59.0845 75.9113 59.1626 75.3839 59.1626C74.7133 59.1626 74.1046 59.0291 73.5577 58.7622C73.0174 58.4888 72.5877 58.1144 72.2687 57.6392C71.9562 57.1574 71.7999 56.6105 71.7999 55.9985C71.7999 55.4451 71.9041 54.9536 72.1124 54.5239C72.3208 54.0942 72.6267 53.7329 73.0304 53.4399C73.4406 53.1405 73.9516 52.9159 74.5636 52.7661C75.1756 52.6099 75.8852 52.5317 76.6925 52.5317H78.3234ZM85.7648 50.5884V58.9673H82.9425V48.4009H85.589L85.7648 50.5884ZM85.3741 53.313H84.5929C84.5929 52.5773 84.6808 51.9002 84.8566 51.2817C85.0389 50.6567 85.3025 50.1164 85.6476 49.6606C85.9991 49.1984 86.4321 48.8403 86.9464 48.5864C87.4607 48.3325 88.0564 48.2056 88.7335 48.2056C89.2023 48.2056 89.632 48.2772 90.0226 48.4204C90.4132 48.5571 90.7485 48.7752 91.0284 49.0747C91.3149 49.3677 91.5363 49.7518 91.6925 50.2271C91.8488 50.6958 91.9269 51.259 91.9269 51.9165V58.9673H89.1144V52.229C89.1144 51.7472 89.0493 51.3761 88.9191 51.1157C88.7889 50.8553 88.6033 50.673 88.3624 50.5688C88.1281 50.4647 87.8448 50.4126 87.5128 50.4126C87.1482 50.4126 86.8292 50.4875 86.5558 50.6372C86.2889 50.7869 86.0675 50.9953 85.8917 51.2622C85.7159 51.5226 85.5857 51.8286 85.5011 52.1802C85.4165 52.5317 85.3741 52.9093 85.3741 53.313ZM91.6632 52.9907L90.6573 53.1177C90.6573 52.4276 90.742 51.7863 90.9113 51.1938C91.087 50.6014 91.3442 50.0806 91.6827 49.6313C92.0278 49.1821 92.4542 48.8338 92.962 48.5864C93.4698 48.3325 94.0558 48.2056 94.7198 48.2056C95.2277 48.2056 95.6899 48.2804 96.1066 48.4302C96.5232 48.5734 96.8781 48.8045 97.171 49.1235C97.4705 49.436 97.6984 49.8462 97.8546 50.354C98.0174 50.8618 98.0988 51.4836 98.0988 52.2192V58.9673H95.2765V52.2192C95.2765 51.731 95.2114 51.3599 95.0812 51.106C94.9575 50.8455 94.7752 50.6665 94.5343 50.5688C94.2999 50.4647 94.02 50.4126 93.6945 50.4126C93.3559 50.4126 93.0597 50.481 92.8058 50.6177C92.5519 50.7479 92.3403 50.9302 92.171 51.1646C92.0017 51.3989 91.8748 51.6724 91.7902 51.9849C91.7055 52.2909 91.6632 52.6261 91.6632 52.9907ZM105.14 59.1626C104.319 59.1626 103.584 59.0324 102.933 58.772C102.282 58.505 101.728 58.1372 101.273 57.6685C100.823 57.1997 100.478 56.6561 100.237 56.0376C99.9965 55.4126 99.8761 54.7485 99.8761 54.0454V53.6548C99.8761 52.854 99.99 52.1216 100.218 51.4575C100.446 50.7935 100.771 50.2173 101.194 49.729C101.624 49.2407 102.145 48.8664 102.757 48.606C103.369 48.339 104.059 48.2056 104.827 48.2056C105.576 48.2056 106.24 48.3293 106.819 48.5767C107.399 48.8241 107.884 49.1756 108.275 49.6313C108.672 50.0871 108.971 50.634 109.173 51.272C109.375 51.9035 109.476 52.6066 109.476 53.3813V54.5532H101.077V52.6782H106.712V52.4634C106.712 52.0728 106.64 51.7244 106.497 51.4185C106.36 51.106 106.152 50.8586 105.872 50.6763C105.592 50.494 105.234 50.4028 104.798 50.4028C104.427 50.4028 104.108 50.4842 103.841 50.647C103.574 50.8097 103.356 51.0376 103.187 51.3306C103.024 51.6235 102.9 51.9686 102.816 52.3657C102.737 52.7563 102.698 53.186 102.698 53.6548V54.0454C102.698 54.4686 102.757 54.8592 102.874 55.2173C102.998 55.5754 103.17 55.8846 103.392 56.145C103.62 56.4054 103.893 56.6073 104.212 56.7505C104.538 56.8937 104.905 56.9653 105.316 56.9653C105.823 56.9653 106.295 56.8677 106.732 56.6724C107.174 56.4705 107.555 56.1678 107.874 55.7642L109.241 57.2485C109.02 57.5675 108.717 57.8735 108.333 58.1665C107.956 58.4595 107.5 58.7004 106.966 58.8892C106.432 59.0715 105.823 59.1626 105.14 59.1626ZM115.609 53.7915V53.5864C115.609 52.8117 115.719 52.0988 115.941 51.4478C116.162 50.7902 116.484 50.2205 116.907 49.7388C117.331 49.257 117.851 48.8826 118.47 48.6157C119.088 48.3423 119.798 48.2056 120.599 48.2056C121.4 48.2056 122.112 48.3423 122.737 48.6157C123.362 48.8826 123.887 49.257 124.31 49.7388C124.739 50.2205 125.065 50.7902 125.286 51.4478C125.508 52.0988 125.618 52.8117 125.618 53.5864V53.7915C125.618 54.5597 125.508 55.2726 125.286 55.9302C125.065 56.5812 124.739 57.1509 124.31 57.6392C123.887 58.1209 123.366 58.4953 122.747 58.7622C122.129 59.0291 121.419 59.1626 120.618 59.1626C119.818 59.1626 119.105 59.0291 118.48 58.7622C117.861 58.4953 117.337 58.1209 116.907 57.6392C116.484 57.1509 116.162 56.5812 115.941 55.9302C115.719 55.2726 115.609 54.5597 115.609 53.7915ZM118.421 53.5864V53.7915C118.421 54.2342 118.46 54.6476 118.538 55.0317C118.616 55.4159 118.74 55.7544 118.909 56.0474C119.085 56.3338 119.313 56.5584 119.593 56.7212C119.873 56.884 120.215 56.9653 120.618 56.9653C121.009 56.9653 121.344 56.884 121.624 56.7212C121.904 56.5584 122.129 56.3338 122.298 56.0474C122.467 55.7544 122.591 55.4159 122.669 55.0317C122.754 54.6476 122.796 54.2342 122.796 53.7915V53.5864C122.796 53.1567 122.754 52.7531 122.669 52.3755C122.591 51.9914 122.464 51.6528 122.288 51.3599C122.119 51.0604 121.894 50.826 121.614 50.6567C121.334 50.4875 120.996 50.4028 120.599 50.4028C120.202 50.4028 119.863 50.4875 119.583 50.6567C119.31 50.826 119.085 51.0604 118.909 51.3599C118.74 51.6528 118.616 51.9914 118.538 52.3755C118.46 52.7531 118.421 53.1567 118.421 53.5864ZM130.931 58.9673H128.099V47.4634C128.099 46.6626 128.255 45.9888 128.568 45.4419C128.887 44.8885 129.332 44.4718 129.905 44.1919C130.485 43.9054 131.172 43.7622 131.966 43.7622C132.226 43.7622 132.477 43.7817 132.718 43.8208C132.959 43.8534 133.193 43.8957 133.421 43.9478L133.392 46.0669C133.268 46.0343 133.138 46.0116 133.001 45.9985C132.864 45.9855 132.705 45.979 132.523 45.979C132.184 45.979 131.894 46.0376 131.653 46.1548C131.419 46.2655 131.24 46.4315 131.116 46.6528C130.993 46.8742 130.931 47.1444 130.931 47.4634V58.9673ZM133.04 48.4009V50.3931H126.526V48.4009H133.04ZM144.671 48.4009V50.3931H138.519V48.4009H144.671ZM140.042 45.7935H142.855V55.7837C142.855 56.0897 142.894 56.3241 142.972 56.4868C143.056 56.6496 143.18 56.7635 143.343 56.8286C143.506 56.8872 143.711 56.9165 143.958 56.9165C144.134 56.9165 144.29 56.91 144.427 56.897C144.57 56.8774 144.691 56.8579 144.788 56.8384L144.798 58.9087C144.557 58.9868 144.297 59.0487 144.017 59.0942C143.737 59.1398 143.428 59.1626 143.089 59.1626C142.47 59.1626 141.93 59.0617 141.468 58.8599C141.012 58.6515 140.661 58.3195 140.413 57.8638C140.166 57.408 140.042 56.8091 140.042 56.0669V45.7935ZM149.017 43.9673V58.9673H146.204V43.9673H149.017ZM148.616 53.313H147.845C147.851 52.5773 147.949 51.9002 148.138 51.2817C148.327 50.6567 148.597 50.1164 148.948 49.6606C149.3 49.1984 149.72 48.8403 150.208 48.5864C150.703 48.3325 151.25 48.2056 151.849 48.2056C152.37 48.2056 152.842 48.2804 153.265 48.4302C153.694 48.5734 154.062 48.8078 154.368 49.1333C154.681 49.4523 154.922 49.8722 155.091 50.3931C155.26 50.9139 155.345 51.5454 155.345 52.2876V58.9673H152.513V52.2681C152.513 51.7993 152.444 51.4315 152.308 51.1646C152.178 50.8911 151.985 50.6991 151.732 50.5884C151.484 50.4712 151.178 50.4126 150.814 50.4126C150.41 50.4126 150.065 50.4875 149.778 50.6372C149.498 50.7869 149.274 50.9953 149.105 51.2622C148.935 51.5226 148.812 51.8286 148.734 52.1802C148.655 52.5317 148.616 52.9093 148.616 53.313ZM162.347 59.1626C161.526 59.1626 160.791 59.0324 160.14 58.772C159.489 58.505 158.935 58.1372 158.48 57.6685C158.03 57.1997 157.685 56.6561 157.444 56.0376C157.204 55.4126 157.083 54.7485 157.083 54.0454V53.6548C157.083 52.854 157.197 52.1216 157.425 51.4575C157.653 50.7935 157.978 50.2173 158.401 49.729C158.831 49.2407 159.352 48.8664 159.964 48.606C160.576 48.339 161.266 48.2056 162.034 48.2056C162.783 48.2056 163.447 48.3293 164.026 48.5767C164.606 48.8241 165.091 49.1756 165.482 49.6313C165.879 50.0871 166.178 50.634 166.38 51.272C166.582 51.9035 166.683 52.6066 166.683 53.3813V54.5532H158.284V52.6782H163.919V52.4634C163.919 52.0728 163.847 51.7244 163.704 51.4185C163.568 51.106 163.359 50.8586 163.079 50.6763C162.799 50.494 162.441 50.4028 162.005 50.4028C161.634 50.4028 161.315 50.4842 161.048 50.647C160.781 50.8097 160.563 51.0376 160.394 51.3306C160.231 51.6235 160.107 51.9686 160.023 52.3657C159.944 52.7563 159.905 53.186 159.905 53.6548V54.0454C159.905 54.4686 159.964 54.8592 160.081 55.2173C160.205 55.5754 160.377 55.8846 160.599 56.145C160.827 56.4054 161.1 56.6073 161.419 56.7505C161.745 56.8937 162.112 56.9653 162.523 56.9653C163.03 56.9653 163.502 56.8677 163.939 56.6724C164.381 56.4705 164.762 56.1678 165.081 55.7642L166.448 57.2485C166.227 57.5675 165.924 57.8735 165.54 58.1665C165.163 58.4595 164.707 58.7004 164.173 58.8892C163.639 59.0715 163.03 59.1626 162.347 59.1626ZM178.978 53.8989H175.355V51.6138H178.978C179.538 51.6138 179.993 51.5226 180.345 51.3403C180.696 51.1515 180.954 50.8911 181.116 50.5591C181.279 50.2271 181.36 49.8527 181.36 49.436C181.36 49.0129 181.279 48.619 181.116 48.2544C180.954 47.8898 180.696 47.5968 180.345 47.3755C179.993 47.1541 179.538 47.0435 178.978 47.0435H176.37V58.9673H173.441V44.7485H178.978C180.091 44.7485 181.045 44.9504 181.839 45.354C182.64 45.7511 183.252 46.3013 183.675 47.0044C184.098 47.7075 184.31 48.5116 184.31 49.4165C184.31 50.3345 184.098 51.1287 183.675 51.7993C183.252 52.4699 182.64 52.9875 181.839 53.3521C181.045 53.7166 180.091 53.8989 178.978 53.8989ZM188.968 50.7056V58.9673H186.155V48.4009H188.802L188.968 50.7056ZM192.151 48.3325L192.103 50.9399C191.966 50.9204 191.8 50.9041 191.605 50.8911C191.416 50.8716 191.243 50.8618 191.087 50.8618C190.69 50.8618 190.345 50.9139 190.052 51.0181C189.765 51.1157 189.525 51.2622 189.329 51.4575C189.14 51.6528 188.997 51.8905 188.9 52.1704C188.808 52.4504 188.756 52.7694 188.743 53.1274L188.177 52.9517C188.177 52.2681 188.245 51.6398 188.382 51.0669C188.519 50.4875 188.717 49.9829 188.978 49.5532C189.245 49.1235 189.57 48.7915 189.954 48.5571C190.338 48.3228 190.778 48.2056 191.273 48.2056C191.429 48.2056 191.588 48.2186 191.751 48.2446C191.914 48.2642 192.047 48.2935 192.151 48.3325ZM192.737 53.7915V53.5864C192.737 52.8117 192.848 52.0988 193.069 51.4478C193.291 50.7902 193.613 50.2205 194.036 49.7388C194.459 49.257 194.98 48.8826 195.599 48.6157C196.217 48.3423 196.927 48.2056 197.728 48.2056C198.528 48.2056 199.241 48.3423 199.866 48.6157C200.491 48.8826 201.015 49.257 201.439 49.7388C201.868 50.2205 202.194 50.7902 202.415 51.4478C202.637 52.0988 202.747 52.8117 202.747 53.5864V53.7915C202.747 54.5597 202.637 55.2726 202.415 55.9302C202.194 56.5812 201.868 57.1509 201.439 57.6392C201.015 58.1209 200.495 58.4953 199.876 58.7622C199.258 59.0291 198.548 59.1626 197.747 59.1626C196.946 59.1626 196.234 59.0291 195.609 58.7622C194.99 58.4953 194.466 58.1209 194.036 57.6392C193.613 57.1509 193.291 56.5812 193.069 55.9302C192.848 55.2726 192.737 54.5597 192.737 53.7915ZM195.55 53.5864V53.7915C195.55 54.2342 195.589 54.6476 195.667 55.0317C195.745 55.4159 195.869 55.7544 196.038 56.0474C196.214 56.3338 196.442 56.5584 196.722 56.7212C197.002 56.884 197.344 56.9653 197.747 56.9653C198.138 56.9653 198.473 56.884 198.753 56.7212C199.033 56.5584 199.258 56.3338 199.427 56.0474C199.596 55.7544 199.72 55.4159 199.798 55.0317C199.883 54.6476 199.925 54.2342 199.925 53.7915V53.5864C199.925 53.1567 199.883 52.7531 199.798 52.3755C199.72 51.9914 199.593 51.6528 199.417 51.3599C199.248 51.0604 199.023 50.826 198.743 50.6567C198.463 50.4875 198.125 50.4028 197.728 50.4028C197.331 50.4028 196.992 50.4875 196.712 50.6567C196.439 50.826 196.214 51.0604 196.038 51.3599C195.869 51.6528 195.745 51.9914 195.667 52.3755C195.589 52.7531 195.55 53.1567 195.55 53.5864ZM204.632 48.4009H207.454V59.6021C207.454 60.3833 207.311 61.0441 207.025 61.5845C206.738 62.1248 206.325 62.535 205.784 62.8149C205.244 63.0949 204.59 63.2349 203.821 63.2349C203.581 63.2349 203.346 63.2218 203.118 63.1958C202.884 63.1698 202.643 63.1274 202.396 63.0688L202.405 60.9106C202.562 60.9367 202.715 60.9562 202.864 60.9692C203.008 60.9888 203.154 60.9985 203.304 60.9985C203.597 60.9985 203.841 60.9497 204.036 60.8521C204.232 60.7544 204.378 60.6014 204.476 60.3931C204.58 60.1912 204.632 59.9276 204.632 59.6021V48.4009ZM204.407 45.647C204.407 45.2368 204.551 44.8983 204.837 44.6313C205.13 44.3644 205.514 44.231 205.989 44.231C206.471 44.231 206.855 44.3644 207.142 44.6313C207.428 44.8983 207.571 45.2368 207.571 45.647C207.571 46.0571 207.428 46.3957 207.142 46.6626C206.855 46.9295 206.471 47.063 205.989 47.063C205.514 47.063 205.13 46.9295 204.837 46.6626C204.551 46.3957 204.407 46.0571 204.407 45.647ZM214.554 59.1626C213.734 59.1626 212.998 59.0324 212.347 58.772C211.696 58.505 211.142 58.1372 210.687 57.6685C210.237 57.1997 209.892 56.6561 209.651 56.0376C209.411 55.4126 209.29 54.7485 209.29 54.0454V53.6548C209.29 52.854 209.404 52.1216 209.632 51.4575C209.86 50.7935 210.185 50.2173 210.609 49.729C211.038 49.2407 211.559 48.8664 212.171 48.606C212.783 48.339 213.473 48.2056 214.241 48.2056C214.99 48.2056 215.654 48.3293 216.234 48.5767C216.813 48.8241 217.298 49.1756 217.689 49.6313C218.086 50.0871 218.385 50.634 218.587 51.272C218.789 51.9035 218.89 52.6066 218.89 53.3813V54.5532H210.491V52.6782H216.126V52.4634C216.126 52.0728 216.054 51.7244 215.911 51.4185C215.775 51.106 215.566 50.8586 215.286 50.6763C215.006 50.494 214.648 50.4028 214.212 50.4028C213.841 50.4028 213.522 50.4842 213.255 50.647C212.988 50.8097 212.77 51.0376 212.601 51.3306C212.438 51.6235 212.314 51.9686 212.23 52.3657C212.151 52.7563 212.112 53.186 212.112 53.6548V54.0454C212.112 54.4686 212.171 54.8592 212.288 55.2173C212.412 55.5754 212.584 55.8846 212.806 56.145C213.034 56.4054 213.307 56.6073 213.626 56.7505C213.952 56.8937 214.319 56.9653 214.73 56.9653C215.237 56.9653 215.709 56.8677 216.146 56.6724C216.588 56.4705 216.969 56.1678 217.288 55.7642L218.655 57.2485C218.434 57.5675 218.131 57.8735 217.747 58.1665C217.37 58.4595 216.914 58.7004 216.38 58.8892C215.846 59.0715 215.237 59.1626 214.554 59.1626ZM224.857 56.9653C225.202 56.9653 225.508 56.9002 225.775 56.77C226.041 56.6333 226.25 56.4445 226.4 56.2036C226.556 55.9562 226.637 55.6665 226.644 55.3345H229.29C229.284 56.0767 229.085 56.7375 228.694 57.3169C228.304 57.8898 227.78 58.3423 227.122 58.6743C226.465 58.9998 225.729 59.1626 224.915 59.1626C224.095 59.1626 223.379 59.0259 222.767 58.7524C222.161 58.479 221.657 58.1014 221.253 57.6196C220.849 57.1313 220.547 56.5649 220.345 55.9204C220.143 55.2694 220.042 54.5728 220.042 53.8306V53.5474C220.042 52.7987 220.143 52.1021 220.345 51.4575C220.547 50.8065 220.849 50.2401 221.253 49.7583C221.657 49.27 222.161 48.8892 222.767 48.6157C223.372 48.3423 224.082 48.2056 224.896 48.2056C225.762 48.2056 226.52 48.3716 227.171 48.7036C227.829 49.0356 228.343 49.5109 228.714 50.1294C229.092 50.7414 229.284 51.4673 229.29 52.3071H226.644C226.637 51.9556 226.562 51.6366 226.419 51.3501C226.282 51.0636 226.081 50.8358 225.814 50.6665C225.553 50.4907 225.231 50.4028 224.847 50.4028C224.437 50.4028 224.101 50.4907 223.841 50.6665C223.581 50.8358 223.379 51.0701 223.235 51.3696C223.092 51.6626 222.991 51.9979 222.933 52.3755C222.881 52.7466 222.855 53.1372 222.855 53.5474V53.8306C222.855 54.2407 222.881 54.6346 222.933 55.0122C222.985 55.3898 223.082 55.7251 223.226 56.0181C223.375 56.311 223.581 56.5422 223.841 56.7114C224.101 56.8807 224.44 56.9653 224.857 56.9653ZM236.097 48.4009V50.3931H229.944V48.4009H236.097ZM231.468 45.7935H234.28V55.7837C234.28 56.0897 234.319 56.3241 234.398 56.4868C234.482 56.6496 234.606 56.7635 234.769 56.8286C234.931 56.8872 235.137 56.9165 235.384 56.9165C235.56 56.9165 235.716 56.91 235.853 56.897C235.996 56.8774 236.116 56.8579 236.214 56.8384L236.224 58.9087C235.983 58.9868 235.722 59.0487 235.443 59.0942C235.163 59.1398 234.853 59.1626 234.515 59.1626C233.896 59.1626 233.356 59.0617 232.894 58.8599C232.438 58.6515 232.086 58.3195 231.839 57.8638C231.592 57.408 231.468 56.8091 231.468 56.0669V45.7935Z" fill="white"/>
<path d="M34.9249 85.1135V86.3401H28.7687V85.1135H34.9249ZM29.0031 80.2229V91.5979H27.4952V80.2229H29.0031ZM36.2374 80.2229V91.5979H34.7374V80.2229H36.2374ZM42.2062 91.7542C41.6176 91.7542 41.0838 91.6552 40.6046 91.4573C40.1307 91.2542 39.7218 90.9703 39.3781 90.6057C39.0395 90.2411 38.7791 89.8088 38.5968 89.3088C38.4145 88.8088 38.3234 88.262 38.3234 87.6682V87.3401C38.3234 86.6526 38.4249 86.0406 38.6281 85.5042C38.8312 84.9625 39.1072 84.5042 39.4562 84.1292C39.8051 83.7542 40.201 83.4703 40.6437 83.2776C41.0864 83.0849 41.5447 82.9885 42.0187 82.9885C42.6228 82.9885 43.1437 83.0927 43.5812 83.301C44.0239 83.5094 44.3859 83.801 44.6671 84.176C44.9484 84.5458 45.1567 84.9833 45.2921 85.4885C45.4275 85.9885 45.4952 86.5354 45.4952 87.1292V87.7776H39.1827V86.5979H44.0499V86.4885C44.0291 86.1135 43.951 85.7489 43.8156 85.3948C43.6853 85.0406 43.477 84.7489 43.1906 84.5198C42.9041 84.2906 42.5135 84.176 42.0187 84.176C41.6906 84.176 41.3885 84.2463 41.1124 84.387C40.8364 84.5224 40.5994 84.7255 40.4015 84.9963C40.2036 85.2672 40.0499 85.5979 39.9406 85.9885C39.8312 86.3792 39.7765 86.8297 39.7765 87.3401V87.6682C39.7765 88.0693 39.8312 88.4469 39.9406 88.801C40.0551 89.15 40.2192 89.4573 40.4327 89.7229C40.6515 89.9885 40.9145 90.1969 41.2218 90.3479C41.5343 90.4989 41.8885 90.5745 42.2843 90.5745C42.7947 90.5745 43.227 90.4703 43.5812 90.262C43.9353 90.0536 44.2452 89.775 44.5109 89.426L45.3859 90.1213C45.2036 90.3974 44.9718 90.6604 44.6906 90.9104C44.4093 91.1604 44.0629 91.3635 43.6515 91.5198C43.2452 91.676 42.7635 91.7542 42.2062 91.7542ZM48.6281 84.4729V91.5979H47.1827V83.1448H48.589L48.6281 84.4729ZM51.2687 83.0979L51.2609 84.4417C51.1411 84.4156 51.0265 84.4 50.9171 84.3948C50.8129 84.3844 50.6932 84.3792 50.5577 84.3792C50.2244 84.3792 49.9301 84.4312 49.6749 84.5354C49.4197 84.6396 49.2036 84.7854 49.0265 84.9729C48.8494 85.1604 48.7088 85.3844 48.6046 85.6448C48.5057 85.9 48.4406 86.1812 48.4093 86.4885L48.0031 86.7229C48.0031 86.2125 48.0525 85.7333 48.1515 85.2854C48.2557 84.8375 48.4145 84.4417 48.6281 84.0979C48.8416 83.7489 49.1124 83.4781 49.4406 83.2854C49.7739 83.0875 50.1697 82.9885 50.6281 82.9885C50.7322 82.9885 50.852 83.0015 50.9874 83.0276C51.1228 83.0484 51.2166 83.0719 51.2687 83.0979ZM55.9562 91.7542C55.3676 91.7542 54.8338 91.6552 54.3546 91.4573C53.8807 91.2542 53.4718 90.9703 53.1281 90.6057C52.7895 90.2411 52.5291 89.8088 52.3468 89.3088C52.1645 88.8088 52.0734 88.262 52.0734 87.6682V87.3401C52.0734 86.6526 52.1749 86.0406 52.3781 85.5042C52.5812 84.9625 52.8572 84.5042 53.2062 84.1292C53.5551 83.7542 53.951 83.4703 54.3937 83.2776C54.8364 83.0849 55.2947 82.9885 55.7687 82.9885C56.3728 82.9885 56.8937 83.0927 57.3312 83.301C57.7739 83.5094 58.1359 83.801 58.4171 84.176C58.6984 84.5458 58.9067 84.9833 59.0421 85.4885C59.1775 85.9885 59.2452 86.5354 59.2452 87.1292V87.7776H52.9327V86.5979H57.7999V86.4885C57.7791 86.1135 57.701 85.7489 57.5656 85.3948C57.4353 85.0406 57.227 84.7489 56.9406 84.5198C56.6541 84.2906 56.2635 84.176 55.7687 84.176C55.4406 84.176 55.1385 84.2463 54.8624 84.387C54.5864 84.5224 54.3494 84.7255 54.1515 84.9963C53.9536 85.2672 53.7999 85.5979 53.6906 85.9885C53.5812 86.3792 53.5265 86.8297 53.5265 87.3401V87.6682C53.5265 88.0693 53.5812 88.4469 53.6906 88.801C53.8051 89.15 53.9692 89.4573 54.1827 89.7229C54.4015 89.9885 54.6645 90.1969 54.9718 90.3479C55.2843 90.4989 55.6385 90.5745 56.0343 90.5745C56.5447 90.5745 56.977 90.4703 57.3312 90.262C57.6853 90.0536 57.9952 89.775 58.2609 89.426L59.1359 90.1213C58.9536 90.3974 58.7218 90.6604 58.4406 90.9104C58.1593 91.1604 57.8129 91.3635 57.4015 91.5198C56.9952 91.676 56.5135 91.7542 55.9562 91.7542ZM69.8859 90.1526V85.801C69.8859 85.4677 69.8182 85.1786 69.6827 84.9338C69.5525 84.6838 69.3546 84.4911 69.089 84.3557C68.8234 84.2203 68.4952 84.1526 68.1046 84.1526C67.74 84.1526 67.4197 84.2151 67.1437 84.3401C66.8728 84.4651 66.6593 84.6292 66.5031 84.8323C66.352 85.0354 66.2765 85.2542 66.2765 85.4885H64.8312C64.8312 85.1864 64.9093 84.887 65.0656 84.5901C65.2218 84.2932 65.4458 84.025 65.7374 83.7854C66.0343 83.5406 66.3885 83.3479 66.7999 83.2073C67.2166 83.0614 67.6801 82.9885 68.1906 82.9885C68.8051 82.9885 69.3468 83.0927 69.8156 83.301C70.2895 83.5094 70.6593 83.8245 70.9249 84.2463C71.1958 84.663 71.3312 85.1864 71.3312 85.8167V89.7542C71.3312 90.0354 71.3546 90.3349 71.4015 90.6526C71.4536 90.9703 71.5291 91.2437 71.6281 91.4729V91.5979H70.1202C70.0473 91.4312 69.99 91.2099 69.9484 90.9338C69.9067 90.6526 69.8859 90.3922 69.8859 90.1526ZM70.1359 86.4729L70.1515 87.4885H68.6906C68.2791 87.4885 67.9119 87.5224 67.589 87.5901C67.2661 87.6526 66.9952 87.7489 66.7765 87.8792C66.5577 88.0094 66.3911 88.1734 66.2765 88.3713C66.1619 88.564 66.1046 88.7906 66.1046 89.051C66.1046 89.3167 66.1645 89.5588 66.2843 89.7776C66.4041 89.9963 66.5838 90.1708 66.8234 90.301C67.0682 90.426 67.3676 90.4885 67.7218 90.4885C68.1645 90.4885 68.5551 90.3948 68.8937 90.2073C69.2322 90.0198 69.5004 89.7906 69.6984 89.5198C69.9015 89.2489 70.0109 88.9859 70.0265 88.7307L70.6437 89.426C70.6072 89.6448 70.5083 89.887 70.3468 90.1526C70.1853 90.4182 69.9692 90.6734 69.6984 90.9182C69.4327 91.1578 69.115 91.3583 68.7452 91.5198C68.3807 91.676 67.9692 91.7542 67.5109 91.7542C66.9379 91.7542 66.4353 91.6422 66.0031 91.4182C65.576 91.1943 65.2426 90.8948 65.0031 90.5198C64.7687 90.1396 64.6515 89.7151 64.6515 89.2463C64.6515 88.7932 64.74 88.3948 64.9171 88.051C65.0942 87.7021 65.3494 87.413 65.6827 87.1838C66.0161 86.9495 66.4171 86.7724 66.8859 86.6526C67.3546 86.5328 67.8781 86.4729 68.4562 86.4729H70.1359ZM75.0499 84.4729V91.5979H73.6046V83.1448H75.0109L75.0499 84.4729ZM77.6906 83.0979L77.6827 84.4417C77.5629 84.4156 77.4484 84.4 77.339 84.3948C77.2348 84.3844 77.115 84.3792 76.9796 84.3792C76.6463 84.3792 76.352 84.4312 76.0968 84.5354C75.8416 84.6396 75.6254 84.7854 75.4484 84.9729C75.2713 85.1604 75.1307 85.3844 75.0265 85.6448C74.9275 85.9 74.8624 86.1812 74.8312 86.4885L74.4249 86.7229C74.4249 86.2125 74.4744 85.7333 74.5734 85.2854C74.6775 84.8375 74.8364 84.4417 75.0499 84.0979C75.2635 83.7489 75.5343 83.4781 75.8624 83.2854C76.1958 83.0875 76.5916 82.9885 77.0499 82.9885C77.1541 82.9885 77.2739 83.0015 77.4093 83.0276C77.5447 83.0484 77.6385 83.0719 77.6906 83.0979ZM82.3781 91.7542C81.7895 91.7542 81.2557 91.6552 80.7765 91.4573C80.3025 91.2542 79.8937 90.9703 79.5499 90.6057C79.2114 90.2411 78.951 89.8088 78.7687 89.3088C78.5864 88.8088 78.4952 88.262 78.4952 87.6682V87.3401C78.4952 86.6526 78.5968 86.0406 78.7999 85.5042C79.0031 84.9625 79.2791 84.5042 79.6281 84.1292C79.977 83.7542 80.3728 83.4703 80.8156 83.2776C81.2583 83.0849 81.7166 82.9885 82.1906 82.9885C82.7947 82.9885 83.3156 83.0927 83.7531 83.301C84.1958 83.5094 84.5577 83.801 84.839 84.176C85.1202 84.5458 85.3286 84.9833 85.464 85.4885C85.5994 85.9885 85.6671 86.5354 85.6671 87.1292V87.7776H79.3546V86.5979H84.2218V86.4885C84.201 86.1135 84.1228 85.7489 83.9874 85.3948C83.8572 85.0406 83.6489 84.7489 83.3624 84.5198C83.076 84.2906 82.6853 84.176 82.1906 84.176C81.8624 84.176 81.5603 84.2463 81.2843 84.387C81.0083 84.5224 80.7713 84.7255 80.5734 84.9963C80.3754 85.2672 80.2218 85.5979 80.1124 85.9885C80.0031 86.3792 79.9484 86.8297 79.9484 87.3401V87.6682C79.9484 88.0693 80.0031 88.4469 80.1124 88.801C80.227 89.15 80.3911 89.4573 80.6046 89.7229C80.8234 89.9885 81.0864 90.1969 81.3937 90.3479C81.7062 90.4989 82.0603 90.5745 82.4562 90.5745C82.9666 90.5745 83.3989 90.4703 83.7531 90.262C84.1072 90.0536 84.4171 89.775 84.6827 89.426L85.5577 90.1213C85.3754 90.3974 85.1437 90.6604 84.8624 90.9104C84.5812 91.1604 84.2348 91.3635 83.8234 91.5198C83.4171 91.676 82.9353 91.7542 82.3781 91.7542ZM94.8624 83.1448V84.2542H90.2921V83.1448H94.8624ZM91.839 81.0901H93.2843V89.5042C93.2843 89.7906 93.3286 90.0068 93.4171 90.1526C93.5057 90.2984 93.6202 90.3948 93.7609 90.4417C93.9015 90.4885 94.0525 90.512 94.214 90.512C94.3338 90.512 94.4588 90.5015 94.589 90.4807C94.7244 90.4547 94.826 90.4338 94.8937 90.4182L94.9015 91.5979C94.7869 91.6344 94.6359 91.6682 94.4484 91.6995C94.2661 91.7359 94.0447 91.7542 93.7843 91.7542C93.4301 91.7542 93.1046 91.6838 92.8077 91.5432C92.5109 91.4026 92.2739 91.1682 92.0968 90.8401C91.9249 90.5068 91.839 90.0588 91.839 89.4963V81.0901ZM98.0031 79.5979V91.5979H96.5577V79.5979H98.0031ZM97.6593 87.051L97.0577 87.0276C97.0629 86.4495 97.1489 85.9156 97.3156 85.426C97.4822 84.9312 97.7166 84.5015 98.0187 84.137C98.3208 83.7724 98.6801 83.4911 99.0968 83.2932C99.5187 83.0901 99.9848 82.9885 100.495 82.9885C100.912 82.9885 101.287 83.0458 101.62 83.1604C101.954 83.2698 102.237 83.4469 102.472 83.6917C102.711 83.9364 102.894 84.2542 103.019 84.6448C103.144 85.0302 103.206 85.5015 103.206 86.0588V91.5979H101.753V86.0432C101.753 85.6005 101.688 85.2463 101.558 84.9807C101.428 84.7099 101.237 84.5146 100.987 84.3948C100.737 84.2698 100.43 84.2073 100.066 84.2073C99.7062 84.2073 99.3781 84.2828 99.0812 84.4338C98.7895 84.5849 98.5369 84.7932 98.3234 85.0588C98.115 85.3245 97.951 85.6292 97.8312 85.9729C97.7166 86.3114 97.6593 86.6708 97.6593 87.051ZM108.878 91.7542C108.29 91.7542 107.756 91.6552 107.276 91.4573C106.803 91.2542 106.394 90.9703 106.05 90.6057C105.711 90.2411 105.451 89.8088 105.269 89.3088C105.086 88.8088 104.995 88.262 104.995 87.6682V87.3401C104.995 86.6526 105.097 86.0406 105.3 85.5042C105.503 84.9625 105.779 84.5042 106.128 84.1292C106.477 83.7542 106.873 83.4703 107.316 83.2776C107.758 83.0849 108.217 82.9885 108.691 82.9885C109.295 82.9885 109.816 83.0927 110.253 83.301C110.696 83.5094 111.058 83.801 111.339 84.176C111.62 84.5458 111.829 84.9833 111.964 85.4885C112.099 85.9885 112.167 86.5354 112.167 87.1292V87.7776H105.855V86.5979H110.722V86.4885C110.701 86.1135 110.623 85.7489 110.487 85.3948C110.357 85.0406 110.149 84.7489 109.862 84.5198C109.576 84.2906 109.185 84.176 108.691 84.176C108.362 84.176 108.06 84.2463 107.784 84.387C107.508 84.5224 107.271 84.7255 107.073 84.9963C106.875 85.2672 106.722 85.5979 106.612 85.9885C106.503 86.3792 106.448 86.8297 106.448 87.3401V87.6682C106.448 88.0693 106.503 88.4469 106.612 88.801C106.727 89.15 106.891 89.4573 107.105 89.7229C107.323 89.9885 107.586 90.1969 107.894 90.3479C108.206 90.4989 108.56 90.5745 108.956 90.5745C109.467 90.5745 109.899 90.4703 110.253 90.262C110.607 90.0536 110.917 89.775 111.183 89.426L112.058 90.1213C111.875 90.3974 111.644 90.6604 111.362 90.9104C111.081 91.1604 110.735 91.3635 110.323 91.5198C109.917 91.676 109.435 91.7542 108.878 91.7542ZM121.933 80.2229V91.5979H120.448V80.2229H121.933ZM125.589 80.2229V81.4573H116.8V80.2229H125.589ZM129.784 91.7542C129.196 91.7542 128.662 91.6552 128.183 91.4573C127.709 91.2542 127.3 90.9703 126.956 90.6057C126.618 90.2411 126.357 89.8088 126.175 89.3088C125.993 88.8088 125.901 88.262 125.901 87.6682V87.3401C125.901 86.6526 126.003 86.0406 126.206 85.5042C126.409 84.9625 126.685 84.5042 127.034 84.1292C127.383 83.7542 127.779 83.4703 128.222 83.2776C128.665 83.0849 129.123 82.9885 129.597 82.9885C130.201 82.9885 130.722 83.0927 131.159 83.301C131.602 83.5094 131.964 83.801 132.245 84.176C132.526 84.5458 132.735 84.9833 132.87 85.4885C133.006 85.9885 133.073 86.5354 133.073 87.1292V87.7776H126.761V86.5979H131.628V86.4885C131.607 86.1135 131.529 85.7489 131.394 85.3948C131.263 85.0406 131.055 84.7489 130.769 84.5198C130.482 84.2906 130.092 84.176 129.597 84.176C129.269 84.176 128.967 84.2463 128.691 84.387C128.415 84.5224 128.178 84.7255 127.98 84.9963C127.782 85.2672 127.628 85.5979 127.519 85.9885C127.409 86.3792 127.355 86.8297 127.355 87.3401V87.6682C127.355 88.0693 127.409 88.4469 127.519 88.801C127.633 89.15 127.797 89.4573 128.011 89.7229C128.23 89.9885 128.493 90.1969 128.8 90.3479C129.112 90.4989 129.467 90.5745 129.862 90.5745C130.373 90.5745 130.805 90.4703 131.159 90.262C131.513 90.0536 131.823 89.775 132.089 89.426L132.964 90.1213C132.782 90.3974 132.55 90.6604 132.269 90.9104C131.987 91.1604 131.641 91.3635 131.23 91.5198C130.823 91.676 130.342 91.7542 129.784 91.7542ZM138.144 90.5667C138.487 90.5667 138.805 90.4963 139.097 90.3557C139.388 90.2151 139.628 90.0224 139.816 89.7776C140.003 89.5276 140.11 89.2437 140.136 88.926H141.511C141.485 89.426 141.316 89.8922 141.003 90.3245C140.696 90.7515 140.292 91.0979 139.792 91.3635C139.292 91.6239 138.743 91.7542 138.144 91.7542C137.508 91.7542 136.954 91.6422 136.48 91.4182C136.011 91.1943 135.62 90.887 135.308 90.4963C135 90.1057 134.769 89.6578 134.612 89.1526C134.461 88.6422 134.386 88.1031 134.386 87.5354V87.2073C134.386 86.6396 134.461 86.1031 134.612 85.5979C134.769 85.0875 135 84.637 135.308 84.2463C135.62 83.8557 136.011 83.5484 136.48 83.3245C136.954 83.1005 137.508 82.9885 138.144 82.9885C138.805 82.9885 139.383 83.1239 139.878 83.3948C140.373 83.6604 140.761 84.025 141.042 84.4885C141.329 84.9469 141.485 85.4677 141.511 86.051H140.136C140.11 85.7021 140.011 85.387 139.839 85.1057C139.672 84.8245 139.443 84.6005 139.151 84.4338C138.865 84.262 138.529 84.176 138.144 84.176C137.701 84.176 137.329 84.2646 137.026 84.4417C136.73 84.6135 136.493 84.8479 136.316 85.1448C136.144 85.4364 136.019 85.762 135.941 86.1213C135.868 86.4755 135.831 86.8375 135.831 87.2073V87.5354C135.831 87.9052 135.868 88.2698 135.941 88.6292C136.013 88.9885 136.136 89.314 136.308 89.6057C136.485 89.8974 136.722 90.1318 137.019 90.3088C137.321 90.4807 137.696 90.5667 138.144 90.5667ZM144.581 79.5979V91.5979H143.136V79.5979H144.581ZM144.237 87.051L143.636 87.0276C143.641 86.4495 143.727 85.9156 143.894 85.426C144.06 84.9312 144.295 84.5015 144.597 84.137C144.899 83.7724 145.258 83.4911 145.675 83.2932C146.097 83.0901 146.563 82.9885 147.073 82.9885C147.49 82.9885 147.865 83.0458 148.198 83.1604C148.532 83.2698 148.816 83.4469 149.05 83.6917C149.29 83.9364 149.472 84.2542 149.597 84.6448C149.722 85.0302 149.784 85.5015 149.784 86.0588V91.5979H148.331V86.0432C148.331 85.6005 148.266 85.2463 148.136 84.9807C148.006 84.7099 147.816 84.5146 147.566 84.3948C147.316 84.2698 147.008 84.2073 146.644 84.2073C146.284 84.2073 145.956 84.2828 145.659 84.4338C145.368 84.5849 145.115 84.7932 144.901 85.0588C144.693 85.3245 144.529 85.6292 144.409 85.9729C144.295 86.3114 144.237 86.6708 144.237 87.051ZM152.784 79.5979V80.5979C152.784 80.9104 152.73 81.2411 152.62 81.5901C152.516 81.9338 152.362 82.2672 152.159 82.5901C151.956 82.9078 151.711 83.1864 151.425 83.426L150.597 82.8557C150.842 82.512 151.026 82.1604 151.151 81.801C151.282 81.4364 151.347 81.0432 151.347 80.6213V79.5979H152.784ZM158.573 89.3557C158.573 89.1474 158.526 88.9547 158.433 88.7776C158.344 88.5953 158.159 88.4312 157.878 88.2854C157.602 88.1344 157.185 88.0042 156.628 87.8948C156.159 87.7958 155.735 87.6786 155.355 87.5432C154.98 87.4078 154.659 87.2437 154.394 87.051C154.133 86.8583 153.933 86.6318 153.792 86.3713C153.651 86.1109 153.581 85.8062 153.581 85.4573C153.581 85.1239 153.654 84.8088 153.8 84.512C153.951 84.2151 154.162 83.9521 154.433 83.7229C154.709 83.4937 155.04 83.314 155.425 83.1838C155.81 83.0536 156.24 82.9885 156.714 82.9885C157.391 82.9885 157.969 83.1083 158.448 83.3479C158.928 83.5875 159.295 83.9078 159.55 84.3088C159.805 84.7047 159.933 85.1448 159.933 85.6292H158.487C158.487 85.3948 158.417 85.1682 158.276 84.9495C158.141 84.7255 157.941 84.5406 157.675 84.3948C157.415 84.2489 157.094 84.176 156.714 84.176C156.313 84.176 155.987 84.2385 155.737 84.3635C155.493 84.4833 155.313 84.637 155.198 84.8245C155.089 85.012 155.034 85.2099 155.034 85.4182C155.034 85.5745 155.06 85.7151 155.112 85.8401C155.17 85.9599 155.269 86.0719 155.409 86.176C155.55 86.275 155.748 86.3687 156.003 86.4573C156.258 86.5458 156.584 86.6344 156.98 86.7229C157.672 86.8792 158.243 87.0667 158.691 87.2854C159.138 87.5042 159.472 87.7724 159.691 88.0901C159.909 88.4078 160.019 88.7932 160.019 89.2463C160.019 89.6161 159.941 89.9547 159.784 90.262C159.633 90.5693 159.412 90.8349 159.12 91.0588C158.834 91.2776 158.49 91.4495 158.089 91.5745C157.693 91.6943 157.248 91.7542 156.753 91.7542C156.008 91.7542 155.378 91.6213 154.862 91.3557C154.347 91.0901 153.956 90.7463 153.691 90.3245C153.425 89.9026 153.292 89.4573 153.292 88.9885H154.745C154.766 89.3844 154.881 89.6995 155.089 89.9338C155.297 90.163 155.553 90.3271 155.855 90.426C156.157 90.5198 156.456 90.5667 156.753 90.5667C157.149 90.5667 157.48 90.5146 157.745 90.4104C158.016 90.3062 158.222 90.163 158.362 89.9807C158.503 89.7984 158.573 89.5901 158.573 89.3557ZM171.058 89.6448V83.1448H172.511V91.5979H171.128L171.058 89.6448ZM171.331 87.8635L171.933 87.8479C171.933 88.4104 171.873 88.9312 171.753 89.4104C171.638 89.8844 171.451 90.2958 171.191 90.6448C170.93 90.9937 170.589 91.2672 170.167 91.4651C169.745 91.6578 169.232 91.7542 168.628 91.7542C168.217 91.7542 167.839 91.6943 167.495 91.5745C167.157 91.4547 166.865 91.2698 166.62 91.0198C166.375 90.7698 166.185 90.4443 166.05 90.0432C165.92 89.6422 165.855 89.1604 165.855 88.5979V83.1448H167.3V88.6135C167.3 88.9937 167.342 89.3088 167.425 89.5588C167.513 89.8036 167.631 89.9989 167.776 90.1448C167.928 90.2854 168.094 90.3844 168.276 90.4417C168.464 90.4989 168.657 90.5276 168.855 90.5276C169.469 90.5276 169.956 90.4104 170.316 90.176C170.675 89.9364 170.933 89.6161 171.089 89.2151C171.25 88.8088 171.331 88.3583 171.331 87.8635ZM179.636 89.3557C179.636 89.1474 179.589 88.9547 179.495 88.7776C179.407 88.5953 179.222 88.4312 178.941 88.2854C178.665 88.1344 178.248 88.0042 177.691 87.8948C177.222 87.7958 176.797 87.6786 176.417 87.5432C176.042 87.4078 175.722 87.2437 175.456 87.051C175.196 86.8583 174.995 86.6318 174.855 86.3713C174.714 86.1109 174.644 85.8062 174.644 85.4573C174.644 85.1239 174.717 84.8088 174.862 84.512C175.013 84.2151 175.224 83.9521 175.495 83.7229C175.771 83.4937 176.102 83.314 176.487 83.1838C176.873 83.0536 177.303 82.9885 177.776 82.9885C178.454 82.9885 179.032 83.1083 179.511 83.3479C179.99 83.5875 180.357 83.9078 180.612 84.3088C180.868 84.7047 180.995 85.1448 180.995 85.6292H179.55C179.55 85.3948 179.48 85.1682 179.339 84.9495C179.204 84.7255 179.003 84.5406 178.737 84.3948C178.477 84.2489 178.157 84.176 177.776 84.176C177.375 84.176 177.05 84.2385 176.8 84.3635C176.555 84.4833 176.375 84.637 176.261 84.8245C176.151 85.012 176.097 85.2099 176.097 85.4182C176.097 85.5745 176.123 85.7151 176.175 85.8401C176.232 85.9599 176.331 86.0719 176.472 86.176C176.612 86.275 176.81 86.3687 177.066 86.4573C177.321 86.5458 177.646 86.6344 178.042 86.7229C178.735 86.8792 179.305 87.0667 179.753 87.2854C180.201 87.5042 180.534 87.7724 180.753 88.0901C180.972 88.4078 181.081 88.7932 181.081 89.2463C181.081 89.6161 181.003 89.9547 180.847 90.262C180.696 90.5693 180.474 90.8349 180.183 91.0588C179.896 91.2776 179.553 91.4495 179.151 91.5745C178.756 91.6943 178.31 91.7542 177.816 91.7542C177.071 91.7542 176.441 91.6213 175.925 91.3557C175.409 91.0901 175.019 90.7463 174.753 90.3245C174.487 89.9026 174.355 89.4573 174.355 88.9885H175.808C175.829 89.3844 175.943 89.6995 176.151 89.9338C176.36 90.163 176.615 90.3271 176.917 90.426C177.219 90.5198 177.519 90.5667 177.816 90.5667C178.211 90.5667 178.542 90.5146 178.808 90.4104C179.079 90.3062 179.284 90.163 179.425 89.9807C179.566 89.7984 179.636 89.5901 179.636 89.3557ZM186.487 91.7542C185.899 91.7542 185.365 91.6552 184.886 91.4573C184.412 91.2542 184.003 90.9703 183.659 90.6057C183.321 90.2411 183.06 89.8088 182.878 89.3088C182.696 88.8088 182.605 88.262 182.605 87.6682V87.3401C182.605 86.6526 182.706 86.0406 182.909 85.5042C183.112 84.9625 183.388 84.5042 183.737 84.1292C184.086 83.7542 184.482 83.4703 184.925 83.2776C185.368 83.0849 185.826 82.9885 186.3 82.9885C186.904 82.9885 187.425 83.0927 187.862 83.301C188.305 83.5094 188.667 83.801 188.948 84.176C189.23 84.5458 189.438 84.9833 189.573 85.4885C189.709 85.9885 189.776 86.5354 189.776 87.1292V87.7776H183.464V86.5979H188.331V86.4885C188.31 86.1135 188.232 85.7489 188.097 85.3948C187.967 85.0406 187.758 84.7489 187.472 84.5198C187.185 84.2906 186.795 84.176 186.3 84.176C185.972 84.176 185.67 84.2463 185.394 84.387C185.118 84.5224 184.881 84.7255 184.683 84.9963C184.485 85.2672 184.331 85.5979 184.222 85.9885C184.112 86.3792 184.058 86.8297 184.058 87.3401V87.6682C184.058 88.0693 184.112 88.4469 184.222 88.801C184.336 89.15 184.5 89.4573 184.714 89.7229C184.933 89.9885 185.196 90.1969 185.503 90.3479C185.816 90.4989 186.17 90.5745 186.566 90.5745C187.076 90.5745 187.508 90.4703 187.862 90.262C188.217 90.0536 188.526 89.775 188.792 89.426L189.667 90.1213C189.485 90.3974 189.253 90.6604 188.972 90.9104C188.691 91.1604 188.344 91.3635 187.933 91.5198C187.526 91.676 187.045 91.7542 186.487 91.7542ZM196.792 89.9573V79.5979H198.245V91.5979H196.917L196.792 89.9573ZM191.105 87.4651V87.301C191.105 86.6552 191.183 86.0693 191.339 85.5432C191.5 85.012 191.727 84.5562 192.019 84.176C192.316 83.7958 192.667 83.5042 193.073 83.301C193.485 83.0927 193.943 82.9885 194.448 82.9885C194.98 82.9885 195.443 83.0823 195.839 83.2698C196.24 83.4521 196.579 83.7203 196.855 84.0745C197.136 84.4234 197.357 84.8453 197.519 85.3401C197.68 85.8349 197.792 86.3948 197.855 87.0198V87.7385C197.797 88.3583 197.685 88.9156 197.519 89.4104C197.357 89.9052 197.136 90.3271 196.855 90.676C196.579 91.025 196.24 91.2932 195.839 91.4807C195.438 91.663 194.969 91.7542 194.433 91.7542C193.938 91.7542 193.485 91.6474 193.073 91.4338C192.667 91.2203 192.316 90.9208 192.019 90.5354C191.727 90.15 191.5 89.6969 191.339 89.176C191.183 88.65 191.105 88.0797 191.105 87.4651ZM192.558 87.301V87.4651C192.558 87.887 192.599 88.2828 192.683 88.6526C192.771 89.0224 192.907 89.3479 193.089 89.6292C193.271 89.9104 193.503 90.1318 193.784 90.2932C194.066 90.4495 194.401 90.5276 194.792 90.5276C195.271 90.5276 195.665 90.426 195.972 90.2229C196.284 90.0198 196.534 89.7515 196.722 89.4182C196.909 89.0849 197.055 88.7229 197.159 88.3323V86.4495C197.097 86.163 197.006 85.887 196.886 85.6213C196.771 85.3505 196.62 85.1109 196.433 84.9026C196.25 84.689 196.024 84.5198 195.753 84.3948C195.487 84.2698 195.172 84.2073 194.808 84.2073C194.412 84.2073 194.071 84.2906 193.784 84.4573C193.503 84.6187 193.271 84.8427 193.089 85.1292C192.907 85.4104 192.771 85.7385 192.683 86.1135C192.599 86.4833 192.558 86.8792 192.558 87.301Z" fill="white"/>
<path fill-rule="evenodd" clip-rule="evenodd" d="M268.092 380.554C268.092 383.316 265.854 385.554 263.092 385.554L50.135 385.554C47.3736 385.554 45.135 383.316 45.135 380.554L45.135 204.352C45.5531 204.656 46.0648 204.83 46.6061 204.83L120.73 204.83C127.633 204.83 133.23 199.234 133.23 192.33L133.23 130.362C133.23 130.18 133.21 130 133.172 129.826L263.092 129.826C265.854 129.826 268.092 132.065 268.092 134.826L268.092 380.554ZM40.135 202.33H44.1059C44.1061 201.614 44.4148 200.915 44.9809 200.431L129.104 128.463C129.566 128.068 130.145 127.862 130.729 127.862L130.729 124.826L263.092 124.826C268.615 124.826 273.092 129.303 273.092 134.826L273.092 380.554C273.092 386.077 268.615 390.554 263.092 390.554L50.135 390.554C44.6122 390.554 40.135 386.077 40.135 380.554L40.135 202.33ZM120.73 199.83C124.872 199.83 128.23 196.472 128.23 192.33L128.23 135.791L53.374 199.83L120.73 199.83ZM192.498 174.114H224.266C227.028 174.114 229.266 176.353 229.266 179.114V299.27C229.266 300.157 229.03 301.028 228.583 301.793L208.382 336.357L188.181 301.793C187.734 301.028 187.498 300.157 187.498 299.27V179.114C187.498 176.353 189.736 174.114 192.498 174.114ZM182.498 179.114C182.498 173.591 186.975 169.114 192.498 169.114H224.266C229.789 169.114 234.266 173.591 234.266 179.114V299.27C234.266 301.044 233.795 302.785 232.9 304.316L212.699 338.88C210.768 342.183 205.995 342.183 204.065 338.88L183.864 304.316C182.969 302.785 182.498 301.044 182.498 299.27V179.114ZM192.94 290.906C192.94 289.526 194.059 288.406 195.44 288.406H221.324C222.705 288.406 223.824 289.526 223.824 290.906C223.824 292.287 222.705 293.406 221.324 293.406H195.44C194.059 293.406 192.94 292.287 192.94 290.906ZM195.44 199.83C194.059 199.83 192.94 200.95 192.94 202.33C192.94 203.711 194.059 204.83 195.44 204.83H221.324C222.705 204.83 223.824 203.711 223.824 202.33C223.824 200.95 222.705 199.83 221.324 199.83H195.44ZM89.4033 235.546C89.4033 234.166 90.5226 233.046 91.9033 233.046H130.73C132.11 233.046 133.23 234.166 133.23 235.546C133.23 236.927 132.11 238.046 130.73 238.046H91.9033C90.5226 238.046 89.4033 236.927 89.4033 235.546ZM91.9033 277.334C90.5226 277.334 89.4033 278.454 89.4033 279.834C89.4033 281.215 90.5226 282.334 91.9033 282.334H156.614C157.994 282.334 159.114 281.215 159.114 279.834C159.114 278.454 157.994 277.334 156.614 277.334H91.9033ZM89.4033 313.05C89.4033 311.67 90.5226 310.55 91.9033 310.55H156.614C157.994 310.55 159.114 311.67 159.114 313.05C159.114 314.431 157.994 315.55 156.614 315.55H91.9033C90.5226 315.55 89.4033 314.431 89.4033 313.05ZM91.9033 354.838C90.5226 354.838 89.4033 355.958 89.4033 357.338C89.4033 358.719 90.5226 359.838 91.9033 359.838L221.324 359.838C222.705 359.838 223.824 358.719 223.824 357.338C223.824 355.958 222.705 354.838 221.324 354.838L91.9033 354.838Z" fill="white"/>
</svg>
